<svg width="26" height="26" viewBox="0 0 26 26" fill="none" xmlns="http://www.w3.org/2000/svg">
<g opacity="1">
<path fill-rule="evenodd" clip-rule="evenodd" d="M8.11969 10.3095C5.91835 12.6917 5.96494 16.4682 8.25944 18.8072C9.3796 19.9522 10.8681 20.5838 12.4541 20.5849H12.4595C14.0488 20.5849 15.5427 19.9533 16.6683 18.8072C19.0039 16.426 18.9996 12.5531 16.6585 10.1752L13.4237 6.86991C13.0965 9.55874 12.0879 11.9182 10.2918 11.9182C9.74144 11.9182 8.84444 11.6734 8.11969 10.3095ZM12.4595 22.7516H12.4519C10.2788 22.7494 8.23994 21.8882 6.71135 20.3227C3.55452 17.1052 3.55019 11.8695 6.7016 8.65741L7.76652 7.58057C8.04169 7.30541 8.44144 7.19924 8.81952 7.29782C9.19544 7.39966 9.48794 7.69541 9.58544 8.07241C9.8346 9.03549 10.1314 9.50891 10.295 9.68874C10.6796 9.28357 11.3751 7.64666 11.3751 4.87657C11.3751 4.71732 11.3751 4.56674 11.3664 4.41616C11.3459 4.09657 11.4683 3.78349 11.7001 3.56249C12.1302 3.15407 12.8192 3.15407 13.2319 3.57874L18.2044 8.65849C21.3678 11.8695 21.3732 17.1052 18.2153 20.3238C16.678 21.8903 14.6349 22.7516 12.4595 22.7516Z" fill="black"/>
</g>
</svg>
