<svg width="26" height="26" viewBox="0 0 26 26" fill="none" xmlns="http://www.w3.org/2000/svg">
<g opacity="0.2">
<path fill-rule="evenodd" clip-rule="evenodd" d="M15.5232 21.6672C15.4506 21.6672 15.3759 21.664 15.3011 21.6564C14.3478 21.5621 13.6003 20.8894 13.3944 19.9415L10.4879 6.51679L7.49461 13.4306C7.32236 13.8271 6.93128 14.0839 6.50011 14.0839H3.25011C2.65103 14.0839 2.16678 13.5985 2.16678 13.0005C2.16678 12.4015 2.65103 11.9172 3.25011 11.9172H5.78945L8.50428 5.64579C8.88886 4.76179 9.73603 4.24721 10.6991 4.34362C11.6524 4.43787 12.3999 5.11062 12.6058 6.05854L15.5124 19.4832L18.5056 12.5694C18.6779 12.1729 19.0679 11.9172 19.5001 11.9172H22.7501C23.3492 11.9172 23.8334 12.4015 23.8334 13.0005C23.8334 13.5985 23.3492 14.0839 22.7501 14.0839H20.2108L17.4959 20.3542C17.1417 21.17 16.3823 21.6672 15.5232 21.6672Z" fill="black"/>
</g>
</svg>
